<?xml version="1.0" encoding="UTF-8" ?>
<!DOCTYPE svg PUBLIC "-//W3C//DTD SVG 1.1//EN" "http://www.w3.org/Graphics/SVG/1.1/DTD/svg11.dtd">
<svg width="512pt" height="512pt" viewBox="0 0 512 512" version="1.1" xmlns="http://www.w3.org/2000/svg">
<g id="#192e45ff">
<path fill="#192e45" opacity="1.00" d=" M 0.00 0.00 L 512.00 0.00 L 512.00 512.00 L 0.00 512.00 L 0.00 0.00 M 270.48 50.35 C 267.01 53.48 265.07 57.88 262.89 61.93 C 259.19 69.37 255.85 77.04 253.51 85.02 C 252.66 87.86 256.71 89.26 258.76 88.00 C 262.38 85.98 265.64 83.35 269.26 81.30 C 275.27 77.44 282.28 75.73 288.78 72.90 C 286.24 66.40 281.84 60.84 277.64 55.35 C 275.68 53.26 273.86 49.79 270.48 50.35 M 267.94 86.98 C 264.87 88.99 262.19 91.58 258.94 93.32 C 253.88 93.55 248.49 92.49 243.77 94.90 C 230.89 100.78 223.45 114.49 221.28 127.99 C 220.60 133.37 221.27 138.80 222.00 144.15 C 209.93 146.65 197.53 145.35 185.34 144.74 C 179.40 144.52 173.48 143.41 167.54 144.08 C 168.68 147.54 172.61 148.26 175.49 149.72 C 191.97 157.52 208.48 165.29 224.99 173.04 C 230.74 175.57 234.94 180.37 239.71 184.28 C 253.36 196.06 267.26 207.59 282.01 217.99 C 292.13 225.04 302.10 232.57 313.57 237.33 C 320.48 240.73 327.76 243.24 334.92 246.02 C 345.32 249.70 355.62 253.70 366.22 256.80 C 372.41 258.61 378.31 261.58 384.79 262.18 C 384.73 258.49 384.14 254.80 384.48 251.11 C 387.17 231.52 401.10 216.08 406.08 197.23 C 412.34 176.12 412.84 152.58 403.53 132.28 C 402.97 132.23 401.86 132.13 401.30 132.08 C 397.06 156.74 388.35 180.76 374.95 201.94 C 373.75 203.56 372.52 206.25 370.04 205.34 C 339.78 200.99 313.17 178.02 304.42 148.74 C 304.05 147.15 304.03 145.41 305.07 144.05 C 316.77 125.87 333.11 111.28 350.08 98.13 C 353.54 95.33 358.04 93.58 360.44 89.64 C 343.74 80.87 325.05 74.92 306.02 75.66 C 292.58 75.74 279.23 79.70 267.94 86.98 M 382.63 82.61 C 354.90 97.40 329.78 117.66 310.91 142.90 C 307.97 146.07 309.10 150.60 311.00 153.98 C 320.93 177.06 342.08 195.71 367.07 200.29 C 368.75 200.51 371.06 200.85 371.76 198.83 C 384.64 177.99 393.46 154.59 397.15 130.35 C 399.60 112.73 401.60 94.55 397.41 77.02 C 392.04 77.44 387.37 80.32 382.63 82.61 M 193.11 170.15 C 188.00 174.39 183.71 179.54 179.93 184.97 C 173.96 194.39 170.35 205.36 162.60 213.60 C 154.46 221.82 144.06 227.33 133.29 231.31 C 117.98 237.53 102.53 243.44 87.22 249.67 C 81.66 252.37 75.13 251.67 69.62 254.58 C 64.14 256.44 63.82 263.74 65.75 268.30 C 68.29 273.36 71.13 278.90 76.44 281.53 C 78.18 284.10 79.66 286.91 82.01 288.99 C 84.82 291.54 88.11 293.50 90.84 296.14 C 101.98 307.53 116.01 317.09 131.97 319.76 C 149.63 320.29 167.42 319.29 184.97 321.84 C 193.35 322.94 201.91 324.46 209.43 328.50 C 214.65 331.31 217.24 337.27 217.63 342.96 C 219.07 355.13 214.19 367.27 206.54 376.56 C 205.24 378.16 204.36 380.03 203.60 381.94 C 207.40 381.72 211.02 380.49 214.68 379.56 C 213.54 386.62 207.79 391.32 202.90 395.96 C 199.99 398.69 196.12 400.74 194.65 404.68 C 199.34 406.13 204.16 404.66 208.93 404.65 C 205.44 414.30 198.93 422.54 191.47 429.45 C 189.94 431.14 187.16 432.87 188.34 435.53 C 192.28 439.00 197.45 440.58 202.15 442.73 C 230.95 455.12 262.92 459.31 294.05 456.79 C 305.40 456.44 316.60 454.28 327.60 451.58 C 360.85 443.28 393.39 426.58 414.75 399.12 C 413.53 393.88 412.06 388.70 410.33 383.61 C 407.13 374.44 401.78 366.28 396.87 357.98 C 401.96 359.13 406.11 362.43 410.90 364.30 C 410.81 358.05 407.72 352.44 405.05 346.96 C 400.21 338.20 393.05 331.04 385.92 324.15 C 393.61 325.83 401.80 326.41 409.30 323.49 C 406.06 319.71 401.56 317.39 397.95 314.04 C 388.94 305.64 381.78 295.29 377.03 283.92 C 375.40 280.00 375.00 275.66 373.19 271.82 C 371.44 269.83 368.57 269.65 366.21 268.84 C 339.84 260.91 312.98 252.67 290.01 237.00 C 268.05 222.75 247.78 206.09 228.12 188.87 C 223.95 184.72 218.66 182.02 213.31 179.72 C 206.49 176.71 200.00 173.00 193.11 170.15 Z" />
<path fill="#192e45" opacity="1.00" d=" M 248.54 96.75 C 253.14 95.42 258.56 95.46 262.54 98.44 C 268.84 102.63 270.85 110.84 270.39 117.99 C 270.48 127.42 266.25 136.29 260.73 143.70 C 257.23 148.34 252.38 151.98 246.87 153.86 C 241.89 155.53 235.93 154.62 232.04 150.97 C 227.68 146.88 226.09 140.75 225.44 135.02 C 225.28 119.40 234.06 103.35 248.54 96.75 M 253.31 101.24 C 248.98 101.61 245.25 104.26 242.12 107.08 C 235.03 114.12 230.95 124.04 230.69 133.99 C 231.11 139.24 232.42 145.65 237.62 148.20 C 241.72 150.53 246.47 148.43 250.14 146.25 C 259.28 139.87 264.78 129.03 265.55 118.02 C 265.72 114.42 265.15 110.78 263.77 107.45 C 262.02 103.43 257.79 100.50 253.31 101.24 Z" />
</g>
<g id="#d0933aff">
<path fill="#d0933a" opacity="1.00" d=" M 270.48 50.35 C 273.86 49.79 275.68 53.26 277.64 55.35 C 281.84 60.84 286.24 66.40 288.78 72.90 C 282.28 75.73 275.27 77.44 269.26 81.30 C 265.64 83.35 262.38 85.98 258.76 88.00 C 256.71 89.26 252.66 87.86 253.51 85.02 C 255.85 77.04 259.19 69.37 262.89 61.93 C 265.07 57.88 267.01 53.48 270.48 50.35 Z" />
<path fill="#d0933a" opacity="1.00" d=" M 382.63 82.61 C 387.37 80.32 392.04 77.44 397.41 77.02 C 401.60 94.55 399.60 112.73 397.15 130.35 C 393.46 154.59 384.64 177.99 371.76 198.83 C 371.06 200.85 368.75 200.51 367.07 200.29 C 342.08 195.71 320.93 177.06 311.00 153.98 C 309.10 150.60 307.97 146.07 310.91 142.90 C 329.78 117.66 354.90 97.40 382.63 82.61 Z" />
<path fill="#d0933a" opacity="1.00" d=" M 193.11 170.15 C 200.00 173.00 206.49 176.71 213.31 179.72 C 218.66 182.02 223.95 184.72 228.12 188.87 C 247.78 206.09 268.05 222.75 290.01 237.00 C 312.98 252.67 339.84 260.91 366.21 268.84 C 368.57 269.65 371.44 269.83 373.19 271.82 C 375.00 275.66 375.40 280.00 377.03 283.92 C 381.78 295.29 388.94 305.64 397.95 314.04 C 401.56 317.39 406.06 319.71 409.30 323.49 C 401.80 326.41 393.61 325.83 385.92 324.15 C 393.05 331.04 400.21 338.20 405.05 346.96 C 407.72 352.44 410.81 358.05 410.90 364.30 C 406.11 362.43 401.96 359.13 396.87 357.98 C 401.78 366.28 407.13 374.44 410.33 383.61 C 412.06 388.70 413.53 393.88 414.75 399.12 C 393.39 426.58 360.85 443.28 327.60 451.58 C 316.60 454.28 305.40 456.44 294.05 456.79 C 262.92 459.31 230.95 455.12 202.15 442.73 C 197.45 440.58 192.28 439.00 188.34 435.53 C 187.16 432.87 189.94 431.14 191.47 429.45 C 198.93 422.54 205.44 414.30 208.93 404.65 C 204.16 404.66 199.34 406.13 194.65 404.68 C 196.12 400.74 199.99 398.69 202.90 395.96 C 207.79 391.32 213.54 386.62 214.68 379.56 C 211.02 380.49 207.40 381.72 203.60 381.94 C 204.36 380.03 205.24 378.16 206.54 376.56 C 214.19 367.27 219.07 355.13 217.63 342.96 C 217.24 337.27 214.65 331.31 209.43 328.50 C 201.91 324.46 193.35 322.94 184.97 321.84 C 167.42 319.29 149.63 320.29 131.97 319.76 C 116.01 317.09 101.98 307.53 90.84 296.14 C 88.11 293.50 84.82 291.54 82.01 288.99 C 79.66 286.91 78.18 284.10 76.44 281.53 C 82.68 279.32 87.19 274.18 90.71 268.79 C 92.93 264.83 93.90 260.05 93.23 255.55 C 92.73 252.47 89.47 251.28 87.22 249.67 C 102.53 243.44 117.98 237.53 133.29 231.31 C 144.06 227.33 154.46 221.82 162.60 213.60 C 170.35 205.36 173.96 194.39 179.93 184.97 C 183.71 179.54 188.00 174.39 193.11 170.15 Z" />
</g>
<g id="#fdd321ff">
<path fill="#fdd321" opacity="1.00" d=" M 267.94 86.98 C 279.23 79.70 292.58 75.74 306.02 75.66 C 325.05 74.92 343.74 80.87 360.44 89.64 C 358.04 93.58 353.54 95.33 350.08 98.13 C 333.11 111.28 316.77 125.87 305.07 144.05 C 304.03 145.41 304.05 147.15 304.42 148.74 C 313.17 178.02 339.78 200.99 370.04 205.34 C 372.52 206.25 373.75 203.56 374.95 201.94 C 388.35 180.76 397.06 156.74 401.30 132.08 C 401.86 132.13 402.97 132.23 403.53 132.28 C 412.84 152.58 412.34 176.12 406.08 197.23 C 401.10 216.08 387.17 231.52 384.48 251.11 C 384.14 254.80 384.73 258.49 384.79 262.18 C 378.31 261.58 372.41 258.61 366.22 256.80 C 355.62 253.70 345.32 249.70 334.92 246.02 C 327.76 243.24 320.48 240.73 313.57 237.33 C 302.10 232.57 292.13 225.04 282.01 217.99 C 267.26 207.59 253.36 196.06 239.71 184.28 C 234.94 180.37 230.74 175.57 224.99 173.04 C 208.48 165.29 191.97 157.52 175.49 149.72 C 172.61 148.26 168.68 147.54 167.54 144.08 C 173.48 143.41 179.40 144.52 185.34 144.74 C 197.53 145.35 209.93 146.65 222.00 144.15 C 221.27 138.80 220.60 133.37 221.28 127.99 C 223.45 114.49 230.89 100.78 243.77 94.90 C 248.49 92.49 253.88 93.55 258.94 93.32 C 262.19 91.58 264.87 88.99 267.94 86.98 M 248.54 96.75 C 234.06 103.35 225.28 119.40 225.44 135.02 C 226.09 140.75 227.68 146.88 232.04 150.97 C 235.93 154.62 241.89 155.53 246.87 153.86 C 252.38 151.98 257.23 148.34 260.73 143.70 C 266.25 136.29 270.48 127.42 270.39 117.99 C 270.85 110.84 268.84 102.63 262.54 98.44 C 258.56 95.46 253.14 95.42 248.54 96.75 Z" />
</g>
<g id="#ffffffff">
<path fill="#ffffff" opacity="1.00" d=" M 253.31 101.24 C 257.79 100.50 262.02 103.43 263.77 107.45 C 265.15 110.78 265.72 114.42 265.55 118.02 C 264.78 129.03 259.28 139.87 250.14 146.25 C 246.47 148.43 241.72 150.53 237.62 148.20 C 232.42 145.65 231.11 139.24 230.69 133.99 C 230.95 124.04 235.03 114.12 242.12 107.08 C 245.25 104.26 248.98 101.61 253.31 101.24 Z" />
</g>
<g id="#ffcc86ff">
<path fill="#ffcc86" opacity="1.00" d=" M 69.62 254.58 C 75.13 251.67 81.66 252.37 87.22 249.67 C 89.47 251.28 92.73 252.47 93.23 255.55 C 93.90 260.05 92.93 264.83 90.71 268.79 C 87.19 274.18 82.68 279.32 76.44 281.53 C 71.13 278.90 68.29 273.36 65.75 268.30 C 63.82 263.74 64.14 256.44 69.62 254.58 Z" />
</g>
</svg>
